<?xml version="1.0" encoding="UTF-8" standalone="no"?>
<!DOCTYPE svg PUBLIC "-//W3C//DTD SVG 1.1//EN"
 "http://www.w3.org/Graphics/SVG/1.1/DTD/svg11.dtd">
<!-- Generated by graphviz version 2.43.0 (0)
 -->
<!-- Title: %3 Pages: 1 -->
<svg width="115pt" height="479pt"
 viewBox="0.00 0.00 115.15 479.00" xmlns="http://www.w3.org/2000/svg" xmlns:xlink="http://www.w3.org/1999/xlink">
<g id="graph0" class="graph" transform="scale(1 1) rotate(0) translate(4 475)">
<title>%3</title>
<polygon fill="white" stroke="transparent" points="-4,4 -4,-475 111.15,-475 111.15,4 -4,4"/>
<!-- 0_a -->
<g id="node1" class="node">
<title>0_a</title>
<ellipse fill="transparent" stroke="black" cx="74" cy="-453" rx="33.29" ry="18"/>
<text text-anchor="middle" x="74" y="-449.3" font-family="Times,serif" font-size="14.00">start</text>
</g>
<!-- 1_b -->
<g id="node2" class="node">
<title>1_b</title>
<ellipse fill="transparent" stroke="black" cx="74" cy="-366" rx="27" ry="18"/>
<text text-anchor="middle" x="74" y="-362.3" font-family="Times,serif" font-size="14.00">s1</text>
</g>
<!-- 0_a&#45;&gt;1_b -->
<g id="edge1" class="edge">
<title>0_a&#45;&gt;1_b</title>
<path fill="none" stroke="black" d="M74,-434.8C74,-423.16 74,-407.55 74,-394.24"/>
<polygon fill="black" stroke="black" points="77.5,-394.18 74,-384.18 70.5,-394.18 77.5,-394.18"/>
<text text-anchor="middle" x="78.5" y="-405.8" font-family="Times,serif" font-size="14.00">a</text>
</g>
<!-- 2_b -->
<g id="node3" class="node">
<title>2_b</title>
<ellipse fill="red" stroke="black" cx="27" cy="-279" rx="27" ry="18"/>
<text text-anchor="middle" x="27" y="-275.3" font-family="Times,serif" font-size="14.00">s2</text>
</g>
<!-- 1_b&#45;&gt;2_b -->
<g id="edge2" class="edge">
<title>1_b&#45;&gt;2_b</title>
<path fill="none" stroke="black" d="M64.94,-348.61C58.13,-336.3 48.69,-319.23 40.93,-305.19"/>
<polygon fill="black" stroke="black" points="43.78,-303.11 35.87,-296.05 37.65,-306.5 43.78,-303.11"/>
<text text-anchor="middle" x="59" y="-318.8" font-family="Times,serif" font-size="14.00">b</text>
</g>
<!-- 3_+ -->
<g id="node4" class="node">
<title>3_+</title>
<ellipse fill="transparent" stroke="black" cx="58" cy="-192" rx="27" ry="18"/>
<text text-anchor="middle" x="58" y="-188.3" font-family="Times,serif" font-size="14.00">s3</text>
</g>
<!-- 2_b&#45;&gt;3_+ -->
<g id="edge3" class="edge">
<title>2_b&#45;&gt;3_+</title>
<path fill="none" stroke="black" d="M33.12,-261.21C37.5,-249.22 43.47,-232.85 48.46,-219.16"/>
<polygon fill="black" stroke="black" points="51.75,-220.35 51.89,-209.76 45.17,-217.95 51.75,-220.35"/>
<text text-anchor="middle" x="50" y="-231.8" font-family="Times,serif" font-size="14.00">b</text>
</g>
<!-- 3_+&#45;&gt;1_b -->
<g id="edge4" class="edge">
<title>3_+&#45;&gt;1_b</title>
<path fill="none" stroke="black" d="M59.59,-210.05C62.36,-239.88 68.12,-301.76 71.46,-337.64"/>
<polygon fill="black" stroke="black" points="68,-338.25 72.41,-347.88 74.97,-337.6 68,-338.25"/>
<text text-anchor="middle" x="73.5" y="-275.3" font-family="Times,serif" font-size="14.00">+</text>
</g>
<!-- 4_a -->
<g id="node5" class="node">
<title>4_a</title>
<ellipse fill="transparent" stroke="black" cx="58" cy="-105" rx="27" ry="18"/>
<text text-anchor="middle" x="58" y="-101.3" font-family="Times,serif" font-size="14.00">s4</text>
</g>
<!-- 3_+&#45;&gt;4_a -->
<g id="edge5" class="edge">
<title>3_+&#45;&gt;4_a</title>
<path fill="none" stroke="black" d="M58,-173.8C58,-162.16 58,-146.55 58,-133.24"/>
<polygon fill="black" stroke="black" points="61.5,-133.18 58,-123.18 54.5,-133.18 61.5,-133.18"/>
<text text-anchor="middle" x="64.5" y="-144.8" font-family="Times,serif" font-size="14.00">+</text>
</g>
<!-- 5_match -->
<g id="node6" class="node">
<title>5_match</title>
<ellipse fill="transparent" stroke="black" cx="58" cy="-18" rx="27.9" ry="18"/>
<text text-anchor="middle" x="58" y="-14.3" font-family="Times,serif" font-size="14.00">end</text>
</g>
<!-- 4_a&#45;&gt;5_match -->
<g id="edge6" class="edge">
<title>4_a&#45;&gt;5_match</title>
<path fill="none" stroke="black" d="M58,-86.8C58,-75.16 58,-59.55 58,-46.24"/>
<polygon fill="black" stroke="black" points="61.5,-46.18 58,-36.18 54.5,-46.18 61.5,-46.18"/>
<text text-anchor="middle" x="62.5" y="-57.8" font-family="Times,serif" font-size="14.00">a</text>
</g>
</g>
</svg>
